<svg xmlns="http://www.w3.org/2000/svg" viewBox="0 0 1000 340" width="1000" height="340" role="img" aria-labelledby="t d">
<title id="t">Farhan Jafri</title>
<desc id="d">Syed Farhan Jafri, software engineer. Full-stack apps with MERN and Spring Boot, machine learning with PyTorch and TensorFlow, gaming and YouTube.</desc>
<defs>
  <linearGradient id="shine" gradientUnits="userSpaceOnUse" x1="-2000" y1="0" x2="3000" y2="0">
    <stop offset="0" stop-color="#EAF0FA"/><stop offset=".29" stop-color="#EAF0FA"/>
    <stop offset=".31" stop-color="#F2B544"/><stop offset=".33" stop-color="#EAF0FA"/>
    <stop offset="1" stop-color="#EAF0FA"/>
    <animateTransform attributeName="gradientTransform" type="translate"
      values="0 0; 1500 0; 1500 0" keyTimes="0; .32; 1" dur="7s" begin="2.2s" repeatCount="indefinite"/>
  </linearGradient>
</defs>
<style>
    .mono{font-family:ui-monospace, SFMono-Regular, Menlo, Consolas, 'Liberation Mono', monospace} .sans{font-family:-apple-system, 'Segoe UI', Helvetica, Arial, sans-serif}
    .px{animation:pop .45s cubic-bezier(.2,.9,.3,1.2) both}
    @keyframes pop{from{opacity:0;transform:translateY(-14px)}to{opacity:1;transform:none}}
    .fade{animation:fade .8s ease-out both}
    @keyframes fade{from{opacity:0}to{opacity:1}}
    .blink{animation:blink 1s steps(1,end) infinite}
    @keyframes blink{50%{opacity:0}}
    .tw{animation:tw 4s ease-in-out infinite;opacity:.25}
    @keyframes tw{0%,100%{opacity:.15}50%{opacity:.9}}
    @keyframes t0{0%{transform:translateX(0)}18%{transform:translateX(606px)}29%{transform:translateX(606px)}31%{transform:translateX(0)}100%{transform:translateX(0)}}@keyframes v0{0%,32%{opacity:1}33%,100%{opacity:0}}@keyframes t1{0%{transform:translateX(0)}18%{transform:translateX(522px)}29%{transform:translateX(522px)}31%{transform:translateX(0)}100%{transform:translateX(0)}}@keyframes v1{0%,32%{opacity:1}33%,100%{opacity:0}}@keyframes t2{0%{transform:translateX(0)}18%{transform:translateX(426px)}29%{transform:translateX(426px)}31%{transform:translateX(0)}100%{transform:translateX(0)}}@keyframes v2{0%,32%{opacity:1}33%,100%{opacity:0}}
    @media (prefers-reduced-motion: reduce){
      *{animation:none!important}
      .ln{opacity:0} .ln:first-of-type{opacity:1} .cv{transform:translateX(800px)}
    }</style>
<path d="M15,1 H985 L999,15 V325 L985,339 H15 L1,325 V15 Z" fill="#0E1726" stroke="#24365A" stroke-width="2"/>
<rect x="930" y="70" width="4" height="4" fill="#5CC8FF" class="tw" style="animation-delay:0.00s"/><rect x="952" y="128" width="4" height="4" fill="#F2B544" class="tw" style="animation-delay:0.73s"/><rect x="905" y="160" width="4" height="4" fill="#5CC8FF" class="tw" style="animation-delay:1.46s"/><rect x="968" y="206" width="4" height="4" fill="#5CC8FF" class="tw" style="animation-delay:2.19s"/><rect x="918" y="236" width="4" height="4" fill="#F2B544" class="tw" style="animation-delay:2.92s"/><rect x="620" y="58" width="4" height="4" fill="#5CC8FF" class="tw" style="animation-delay:3.65s"/><rect x="684" y="74" width="4" height="4" fill="#F2B544" class="tw" style="animation-delay:0.38s"/><rect x="40" y="300" width="4" height="4" fill="#5CC8FF" class="tw" style="animation-delay:1.11s"/><rect x="500" y="312" width="4" height="4" fill="#5CC8FF" class="tw" style="animation-delay:1.84s"/><rect x="948" y="280" width="4" height="4" fill="#5CC8FF" class="tw" style="animation-delay:2.57s"/>

<g class="fade">
  <rect x="56" y="36" width="16" height="16" fill="#F2B544"/>
  <text x="63.5" y="48.5" text-anchor="middle" class="mono" font-size="11" font-weight="700" fill="#0E1726">P1</text>
  <text x="82" y="49" class="mono" font-size="15" fill="#8A9BB8">farhanj21</text>
  <text x="768" y="49" text-anchor="end" class="mono" font-size="15" fill="#EAF0FA">Lv 24</text>
  <rect x="780" y="38" width="176" height="12" fill="#1B2A45"/>
  <rect x="780" y="38" width="127" height="12" fill="#F2B544">
    <animate attributeName="width" values="0;0;127" keyTimes="0;.3;1" dur="2.2s" fill="freeze"
      calcMode="spline" keySplines="0 0 1 1;.2 .8 .3 1"/>
  </rect>
  <rect x="796" y="38" width="2" height="12" fill="#0E1726"/><rect x="812" y="38" width="2" height="12" fill="#0E1726"/><rect x="828" y="38" width="2" height="12" fill="#0E1726"/><rect x="844" y="38" width="2" height="12" fill="#0E1726"/><rect x="860" y="38" width="2" height="12" fill="#0E1726"/><rect x="876" y="38" width="2" height="12" fill="#0E1726"/><rect x="892" y="38" width="2" height="12" fill="#0E1726"/><rect x="908" y="38" width="2" height="12" fill="#0E1726"/><rect x="924" y="38" width="2" height="12" fill="#0E1726"/><rect x="940" y="38" width="2" height="12" fill="#0E1726"/>
</g>

<g class="px" style="animation-delay:0.350s"><g fill="#2B4C7E"><rect x="60" y="100" width="10.5" height="10.5"/><rect x="60" y="112" width="10.5" height="10.5"/><rect x="60" y="124" width="10.5" height="10.5"/><rect x="60" y="136" width="10.5" height="10.5"/><rect x="60" y="148" width="10.5" height="10.5"/><rect x="60" y="160" width="10.5" height="10.5"/><rect x="60" y="172" width="10.5" height="10.5"/></g><g fill="url(#shine)"><rect x="56" y="96" width="10.5" height="10.5"/><rect x="56" y="108" width="10.5" height="10.5"/><rect x="56" y="120" width="10.5" height="10.5"/><rect x="56" y="132" width="10.5" height="10.5"/><rect x="56" y="144" width="10.5" height="10.5"/><rect x="56" y="156" width="10.5" height="10.5"/><rect x="56" y="168" width="10.5" height="10.5"/></g></g><g class="px" style="animation-delay:0.372s"><g fill="#2B4C7E"><rect x="72" y="100" width="10.5" height="10.5"/><rect x="72" y="136" width="10.5" height="10.5"/></g><g fill="url(#shine)"><rect x="68" y="96" width="10.5" height="10.5"/><rect x="68" y="132" width="10.5" height="10.5"/></g></g><g class="px" style="animation-delay:0.394s"><g fill="#2B4C7E"><rect x="84" y="100" width="10.5" height="10.5"/><rect x="84" y="136" width="10.5" height="10.5"/></g><g fill="url(#shine)"><rect x="80" y="96" width="10.5" height="10.5"/><rect x="80" y="132" width="10.5" height="10.5"/></g></g><g class="px" style="animation-delay:0.416s"><g fill="#2B4C7E"><rect x="96" y="100" width="10.5" height="10.5"/><rect x="96" y="136" width="10.5" height="10.5"/></g><g fill="url(#shine)"><rect x="92" y="96" width="10.5" height="10.5"/><rect x="92" y="132" width="10.5" height="10.5"/></g></g><g class="px" style="animation-delay:0.438s"><g fill="#2B4C7E"><rect x="108" y="100" width="10.5" height="10.5"/></g><g fill="url(#shine)"><rect x="104" y="96" width="10.5" height="10.5"/></g></g><g class="px" style="animation-delay:0.460s"><g fill="#2B4C7E"><rect x="132" y="112" width="10.5" height="10.5"/><rect x="132" y="124" width="10.5" height="10.5"/><rect x="132" y="136" width="10.5" height="10.5"/><rect x="132" y="148" width="10.5" height="10.5"/><rect x="132" y="160" width="10.5" height="10.5"/><rect x="132" y="172" width="10.5" height="10.5"/></g><g fill="url(#shine)"><rect x="128" y="108" width="10.5" height="10.5"/><rect x="128" y="120" width="10.5" height="10.5"/><rect x="128" y="132" width="10.5" height="10.5"/><rect x="128" y="144" width="10.5" height="10.5"/><rect x="128" y="156" width="10.5" height="10.5"/><rect x="128" y="168" width="10.5" height="10.5"/></g></g><g class="px" style="animation-delay:0.482s"><g fill="#2B4C7E"><rect x="144" y="100" width="10.5" height="10.5"/><rect x="144" y="136" width="10.5" height="10.5"/></g><g fill="url(#shine)"><rect x="140" y="96" width="10.5" height="10.5"/><rect x="140" y="132" width="10.5" height="10.5"/></g></g><g class="px" style="animation-delay:0.504s"><g fill="#2B4C7E"><rect x="156" y="100" width="10.5" height="10.5"/><rect x="156" y="136" width="10.5" height="10.5"/></g><g fill="url(#shine)"><rect x="152" y="96" width="10.5" height="10.5"/><rect x="152" y="132" width="10.5" height="10.5"/></g></g><g class="px" style="animation-delay:0.526s"><g fill="#2B4C7E"><rect x="168" y="100" width="10.5" height="10.5"/><rect x="168" y="136" width="10.5" height="10.5"/></g><g fill="url(#shine)"><rect x="164" y="96" width="10.5" height="10.5"/><rect x="164" y="132" width="10.5" height="10.5"/></g></g><g class="px" style="animation-delay:0.548s"><g fill="#2B4C7E"><rect x="180" y="112" width="10.5" height="10.5"/><rect x="180" y="124" width="10.5" height="10.5"/><rect x="180" y="136" width="10.5" height="10.5"/><rect x="180" y="148" width="10.5" height="10.5"/><rect x="180" y="160" width="10.5" height="10.5"/><rect x="180" y="172" width="10.5" height="10.5"/></g><g fill="url(#shine)"><rect x="176" y="108" width="10.5" height="10.5"/><rect x="176" y="120" width="10.5" height="10.5"/><rect x="176" y="132" width="10.5" height="10.5"/><rect x="176" y="144" width="10.5" height="10.5"/><rect x="176" y="156" width="10.5" height="10.5"/><rect x="176" y="168" width="10.5" height="10.5"/></g></g><g class="px" style="animation-delay:0.570s"><g fill="#2B4C7E"><rect x="204" y="100" width="10.5" height="10.5"/><rect x="204" y="112" width="10.5" height="10.5"/><rect x="204" y="124" width="10.5" height="10.5"/><rect x="204" y="136" width="10.5" height="10.5"/><rect x="204" y="148" width="10.5" height="10.5"/><rect x="204" y="160" width="10.5" height="10.5"/><rect x="204" y="172" width="10.5" height="10.5"/></g><g fill="url(#shine)"><rect x="200" y="96" width="10.5" height="10.5"/><rect x="200" y="108" width="10.5" height="10.5"/><rect x="200" y="120" width="10.5" height="10.5"/><rect x="200" y="132" width="10.5" height="10.5"/><rect x="200" y="144" width="10.5" height="10.5"/><rect x="200" y="156" width="10.5" height="10.5"/><rect x="200" y="168" width="10.5" height="10.5"/></g></g><g class="px" style="animation-delay:0.592s"><g fill="#2B4C7E"><rect x="216" y="100" width="10.5" height="10.5"/><rect x="216" y="136" width="10.5" height="10.5"/></g><g fill="url(#shine)"><rect x="212" y="96" width="10.5" height="10.5"/><rect x="212" y="132" width="10.5" height="10.5"/></g></g><g class="px" style="animation-delay:0.614s"><g fill="#2B4C7E"><rect x="228" y="100" width="10.5" height="10.5"/><rect x="228" y="136" width="10.5" height="10.5"/><rect x="228" y="148" width="10.5" height="10.5"/></g><g fill="url(#shine)"><rect x="224" y="96" width="10.5" height="10.5"/><rect x="224" y="132" width="10.5" height="10.5"/><rect x="224" y="144" width="10.5" height="10.5"/></g></g><g class="px" style="animation-delay:0.636s"><g fill="#2B4C7E"><rect x="240" y="100" width="10.5" height="10.5"/><rect x="240" y="136" width="10.5" height="10.5"/><rect x="240" y="160" width="10.5" height="10.5"/></g><g fill="url(#shine)"><rect x="236" y="96" width="10.5" height="10.5"/><rect x="236" y="132" width="10.5" height="10.5"/><rect x="236" y="156" width="10.5" height="10.5"/></g></g><g class="px" style="animation-delay:0.658s"><g fill="#2B4C7E"><rect x="252" y="112" width="10.5" height="10.5"/><rect x="252" y="124" width="10.5" height="10.5"/><rect x="252" y="172" width="10.5" height="10.5"/></g><g fill="url(#shine)"><rect x="248" y="108" width="10.5" height="10.5"/><rect x="248" y="120" width="10.5" height="10.5"/><rect x="248" y="168" width="10.5" height="10.5"/></g></g><g class="px" style="animation-delay:0.680s"><g fill="#2B4C7E"><rect x="276" y="100" width="10.5" height="10.5"/><rect x="276" y="112" width="10.5" height="10.5"/><rect x="276" y="124" width="10.5" height="10.5"/><rect x="276" y="136" width="10.5" height="10.5"/><rect x="276" y="148" width="10.5" height="10.5"/><rect x="276" y="160" width="10.5" height="10.5"/><rect x="276" y="172" width="10.5" height="10.5"/></g><g fill="url(#shine)"><rect x="272" y="96" width="10.5" height="10.5"/><rect x="272" y="108" width="10.5" height="10.5"/><rect x="272" y="120" width="10.5" height="10.5"/><rect x="272" y="132" width="10.5" height="10.5"/><rect x="272" y="144" width="10.5" height="10.5"/><rect x="272" y="156" width="10.5" height="10.5"/><rect x="272" y="168" width="10.5" height="10.5"/></g></g><g class="px" style="animation-delay:0.702s"><g fill="#2B4C7E"><rect x="288" y="136" width="10.5" height="10.5"/></g><g fill="url(#shine)"><rect x="284" y="132" width="10.5" height="10.5"/></g></g><g class="px" style="animation-delay:0.724s"><g fill="#2B4C7E"><rect x="300" y="136" width="10.5" height="10.5"/></g><g fill="url(#shine)"><rect x="296" y="132" width="10.5" height="10.5"/></g></g><g class="px" style="animation-delay:0.746s"><g fill="#2B4C7E"><rect x="312" y="136" width="10.5" height="10.5"/></g><g fill="url(#shine)"><rect x="308" y="132" width="10.5" height="10.5"/></g></g><g class="px" style="animation-delay:0.768s"><g fill="#2B4C7E"><rect x="324" y="100" width="10.5" height="10.5"/><rect x="324" y="112" width="10.5" height="10.5"/><rect x="324" y="124" width="10.5" height="10.5"/><rect x="324" y="136" width="10.5" height="10.5"/><rect x="324" y="148" width="10.5" height="10.5"/><rect x="324" y="160" width="10.5" height="10.5"/><rect x="324" y="172" width="10.5" height="10.5"/></g><g fill="url(#shine)"><rect x="320" y="96" width="10.5" height="10.5"/><rect x="320" y="108" width="10.5" height="10.5"/><rect x="320" y="120" width="10.5" height="10.5"/><rect x="320" y="132" width="10.5" height="10.5"/><rect x="320" y="144" width="10.5" height="10.5"/><rect x="320" y="156" width="10.5" height="10.5"/><rect x="320" y="168" width="10.5" height="10.5"/></g></g><g class="px" style="animation-delay:0.790s"><g fill="#2B4C7E"><rect x="348" y="112" width="10.5" height="10.5"/><rect x="348" y="124" width="10.5" height="10.5"/><rect x="348" y="136" width="10.5" height="10.5"/><rect x="348" y="148" width="10.5" height="10.5"/><rect x="348" y="160" width="10.5" height="10.5"/><rect x="348" y="172" width="10.5" height="10.5"/></g><g fill="url(#shine)"><rect x="344" y="108" width="10.5" height="10.5"/><rect x="344" y="120" width="10.5" height="10.5"/><rect x="344" y="132" width="10.5" height="10.5"/><rect x="344" y="144" width="10.5" height="10.5"/><rect x="344" y="156" width="10.5" height="10.5"/><rect x="344" y="168" width="10.5" height="10.5"/></g></g><g class="px" style="animation-delay:0.812s"><g fill="#2B4C7E"><rect x="360" y="100" width="10.5" height="10.5"/><rect x="360" y="136" width="10.5" height="10.5"/></g><g fill="url(#shine)"><rect x="356" y="96" width="10.5" height="10.5"/><rect x="356" y="132" width="10.5" height="10.5"/></g></g><g class="px" style="animation-delay:0.834s"><g fill="#2B4C7E"><rect x="372" y="100" width="10.5" height="10.5"/><rect x="372" y="136" width="10.5" height="10.5"/></g><g fill="url(#shine)"><rect x="368" y="96" width="10.5" height="10.5"/><rect x="368" y="132" width="10.5" height="10.5"/></g></g><g class="px" style="animation-delay:0.856s"><g fill="#2B4C7E"><rect x="384" y="100" width="10.5" height="10.5"/><rect x="384" y="136" width="10.5" height="10.5"/></g><g fill="url(#shine)"><rect x="380" y="96" width="10.5" height="10.5"/><rect x="380" y="132" width="10.5" height="10.5"/></g></g><g class="px" style="animation-delay:0.878s"><g fill="#2B4C7E"><rect x="396" y="112" width="10.5" height="10.5"/><rect x="396" y="124" width="10.5" height="10.5"/><rect x="396" y="136" width="10.5" height="10.5"/><rect x="396" y="148" width="10.5" height="10.5"/><rect x="396" y="160" width="10.5" height="10.5"/><rect x="396" y="172" width="10.5" height="10.5"/></g><g fill="url(#shine)"><rect x="392" y="108" width="10.5" height="10.5"/><rect x="392" y="120" width="10.5" height="10.5"/><rect x="392" y="132" width="10.5" height="10.5"/><rect x="392" y="144" width="10.5" height="10.5"/><rect x="392" y="156" width="10.5" height="10.5"/><rect x="392" y="168" width="10.5" height="10.5"/></g></g><g class="px" style="animation-delay:0.900s"><g fill="#2B4C7E"><rect x="420" y="100" width="10.5" height="10.5"/><rect x="420" y="112" width="10.5" height="10.5"/><rect x="420" y="124" width="10.5" height="10.5"/><rect x="420" y="136" width="10.5" height="10.5"/><rect x="420" y="148" width="10.5" height="10.5"/><rect x="420" y="160" width="10.5" height="10.5"/><rect x="420" y="172" width="10.5" height="10.5"/></g><g fill="url(#shine)"><rect x="416" y="96" width="10.5" height="10.5"/><rect x="416" y="108" width="10.5" height="10.5"/><rect x="416" y="120" width="10.5" height="10.5"/><rect x="416" y="132" width="10.5" height="10.5"/><rect x="416" y="144" width="10.5" height="10.5"/><rect x="416" y="156" width="10.5" height="10.5"/><rect x="416" y="168" width="10.5" height="10.5"/></g></g><g class="px" style="animation-delay:0.922s"><g fill="#2B4C7E"><rect x="432" y="124" width="10.5" height="10.5"/></g><g fill="url(#shine)"><rect x="428" y="120" width="10.5" height="10.5"/></g></g><g class="px" style="animation-delay:0.944s"><g fill="#2B4C7E"><rect x="444" y="136" width="10.5" height="10.5"/></g><g fill="url(#shine)"><rect x="440" y="132" width="10.5" height="10.5"/></g></g><g class="px" style="animation-delay:0.966s"><g fill="#2B4C7E"><rect x="456" y="148" width="10.5" height="10.5"/></g><g fill="url(#shine)"><rect x="452" y="144" width="10.5" height="10.5"/></g></g><g class="px" style="animation-delay:0.988s"><g fill="#2B4C7E"><rect x="468" y="100" width="10.5" height="10.5"/><rect x="468" y="112" width="10.5" height="10.5"/><rect x="468" y="124" width="10.5" height="10.5"/><rect x="468" y="136" width="10.5" height="10.5"/><rect x="468" y="148" width="10.5" height="10.5"/><rect x="468" y="160" width="10.5" height="10.5"/><rect x="468" y="172" width="10.5" height="10.5"/></g><g fill="url(#shine)"><rect x="464" y="96" width="10.5" height="10.5"/><rect x="464" y="108" width="10.5" height="10.5"/><rect x="464" y="120" width="10.5" height="10.5"/><rect x="464" y="132" width="10.5" height="10.5"/><rect x="464" y="144" width="10.5" height="10.5"/><rect x="464" y="156" width="10.5" height="10.5"/><rect x="464" y="168" width="10.5" height="10.5"/></g></g><g class="px" style="animation-delay:1.010s"><g fill="#2B4C7E"><rect x="528" y="160" width="10.5" height="10.5"/></g><g fill="url(#shine)"><rect x="524" y="156" width="10.5" height="10.5"/></g></g><g class="px" style="animation-delay:1.032s"><g fill="#2B4C7E"><rect x="540" y="172" width="10.5" height="10.5"/></g><g fill="url(#shine)"><rect x="536" y="168" width="10.5" height="10.5"/></g></g><g class="px" style="animation-delay:1.054s"><g fill="#2B4C7E"><rect x="552" y="100" width="10.5" height="10.5"/><rect x="552" y="172" width="10.5" height="10.5"/></g><g fill="url(#shine)"><rect x="548" y="96" width="10.5" height="10.5"/><rect x="548" y="168" width="10.5" height="10.5"/></g></g><g class="px" style="animation-delay:1.076s"><g fill="#2B4C7E"><rect x="564" y="100" width="10.5" height="10.5"/><rect x="564" y="172" width="10.5" height="10.5"/></g><g fill="url(#shine)"><rect x="560" y="96" width="10.5" height="10.5"/><rect x="560" y="168" width="10.5" height="10.5"/></g></g><g class="px" style="animation-delay:1.098s"><g fill="#2B4C7E"><rect x="576" y="100" width="10.5" height="10.5"/><rect x="576" y="112" width="10.5" height="10.5"/><rect x="576" y="124" width="10.5" height="10.5"/><rect x="576" y="136" width="10.5" height="10.5"/><rect x="576" y="148" width="10.5" height="10.5"/><rect x="576" y="160" width="10.5" height="10.5"/></g><g fill="url(#shine)"><rect x="572" y="96" width="10.5" height="10.5"/><rect x="572" y="108" width="10.5" height="10.5"/><rect x="572" y="120" width="10.5" height="10.5"/><rect x="572" y="132" width="10.5" height="10.5"/><rect x="572" y="144" width="10.5" height="10.5"/><rect x="572" y="156" width="10.5" height="10.5"/></g></g><g class="px" style="animation-delay:1.120s"><g fill="#2B4C7E"><rect x="600" y="112" width="10.5" height="10.5"/><rect x="600" y="124" width="10.5" height="10.5"/><rect x="600" y="136" width="10.5" height="10.5"/><rect x="600" y="148" width="10.5" height="10.5"/><rect x="600" y="160" width="10.5" height="10.5"/><rect x="600" y="172" width="10.5" height="10.5"/></g><g fill="url(#shine)"><rect x="596" y="108" width="10.5" height="10.5"/><rect x="596" y="120" width="10.5" height="10.5"/><rect x="596" y="132" width="10.5" height="10.5"/><rect x="596" y="144" width="10.5" height="10.5"/><rect x="596" y="156" width="10.5" height="10.5"/><rect x="596" y="168" width="10.5" height="10.5"/></g></g><g class="px" style="animation-delay:1.142s"><g fill="#2B4C7E"><rect x="612" y="100" width="10.5" height="10.5"/><rect x="612" y="136" width="10.5" height="10.5"/></g><g fill="url(#shine)"><rect x="608" y="96" width="10.5" height="10.5"/><rect x="608" y="132" width="10.5" height="10.5"/></g></g><g class="px" style="animation-delay:1.164s"><g fill="#2B4C7E"><rect x="624" y="100" width="10.5" height="10.5"/><rect x="624" y="136" width="10.5" height="10.5"/></g><g fill="url(#shine)"><rect x="620" y="96" width="10.5" height="10.5"/><rect x="620" y="132" width="10.5" height="10.5"/></g></g><g class="px" style="animation-delay:1.186s"><g fill="#2B4C7E"><rect x="636" y="100" width="10.5" height="10.5"/><rect x="636" y="136" width="10.5" height="10.5"/></g><g fill="url(#shine)"><rect x="632" y="96" width="10.5" height="10.5"/><rect x="632" y="132" width="10.5" height="10.5"/></g></g><g class="px" style="animation-delay:1.208s"><g fill="#2B4C7E"><rect x="648" y="112" width="10.5" height="10.5"/><rect x="648" y="124" width="10.5" height="10.5"/><rect x="648" y="136" width="10.5" height="10.5"/><rect x="648" y="148" width="10.5" height="10.5"/><rect x="648" y="160" width="10.5" height="10.5"/><rect x="648" y="172" width="10.5" height="10.5"/></g><g fill="url(#shine)"><rect x="644" y="108" width="10.5" height="10.5"/><rect x="644" y="120" width="10.5" height="10.5"/><rect x="644" y="132" width="10.5" height="10.5"/><rect x="644" y="144" width="10.5" height="10.5"/><rect x="644" y="156" width="10.5" height="10.5"/><rect x="644" y="168" width="10.5" height="10.5"/></g></g><g class="px" style="animation-delay:1.230s"><g fill="#2B4C7E"><rect x="672" y="100" width="10.5" height="10.5"/><rect x="672" y="112" width="10.5" height="10.5"/><rect x="672" y="124" width="10.5" height="10.5"/><rect x="672" y="136" width="10.5" height="10.5"/><rect x="672" y="148" width="10.5" height="10.5"/><rect x="672" y="160" width="10.5" height="10.5"/><rect x="672" y="172" width="10.5" height="10.5"/></g><g fill="url(#shine)"><rect x="668" y="96" width="10.5" height="10.5"/><rect x="668" y="108" width="10.5" height="10.5"/><rect x="668" y="120" width="10.5" height="10.5"/><rect x="668" y="132" width="10.5" height="10.5"/><rect x="668" y="144" width="10.5" height="10.5"/><rect x="668" y="156" width="10.5" height="10.5"/><rect x="668" y="168" width="10.5" height="10.5"/></g></g><g class="px" style="animation-delay:1.252s"><g fill="#2B4C7E"><rect x="684" y="100" width="10.5" height="10.5"/><rect x="684" y="136" width="10.5" height="10.5"/></g><g fill="url(#shine)"><rect x="680" y="96" width="10.5" height="10.5"/><rect x="680" y="132" width="10.5" height="10.5"/></g></g><g class="px" style="animation-delay:1.274s"><g fill="#2B4C7E"><rect x="696" y="100" width="10.5" height="10.5"/><rect x="696" y="136" width="10.5" height="10.5"/></g><g fill="url(#shine)"><rect x="692" y="96" width="10.5" height="10.5"/><rect x="692" y="132" width="10.5" height="10.5"/></g></g><g class="px" style="animation-delay:1.296s"><g fill="#2B4C7E"><rect x="708" y="100" width="10.5" height="10.5"/><rect x="708" y="136" width="10.5" height="10.5"/></g><g fill="url(#shine)"><rect x="704" y="96" width="10.5" height="10.5"/><rect x="704" y="132" width="10.5" height="10.5"/></g></g><g class="px" style="animation-delay:1.318s"><g fill="#2B4C7E"><rect x="720" y="100" width="10.5" height="10.5"/></g><g fill="url(#shine)"><rect x="716" y="96" width="10.5" height="10.5"/></g></g><g class="px" style="animation-delay:1.340s"><g fill="#2B4C7E"><rect x="744" y="100" width="10.5" height="10.5"/><rect x="744" y="112" width="10.5" height="10.5"/><rect x="744" y="124" width="10.5" height="10.5"/><rect x="744" y="136" width="10.5" height="10.5"/><rect x="744" y="148" width="10.5" height="10.5"/><rect x="744" y="160" width="10.5" height="10.5"/><rect x="744" y="172" width="10.5" height="10.5"/></g><g fill="url(#shine)"><rect x="740" y="96" width="10.5" height="10.5"/><rect x="740" y="108" width="10.5" height="10.5"/><rect x="740" y="120" width="10.5" height="10.5"/><rect x="740" y="132" width="10.5" height="10.5"/><rect x="740" y="144" width="10.5" height="10.5"/><rect x="740" y="156" width="10.5" height="10.5"/><rect x="740" y="168" width="10.5" height="10.5"/></g></g><g class="px" style="animation-delay:1.362s"><g fill="#2B4C7E"><rect x="756" y="100" width="10.5" height="10.5"/><rect x="756" y="136" width="10.5" height="10.5"/></g><g fill="url(#shine)"><rect x="752" y="96" width="10.5" height="10.5"/><rect x="752" y="132" width="10.5" height="10.5"/></g></g><g class="px" style="animation-delay:1.384s"><g fill="#2B4C7E"><rect x="768" y="100" width="10.5" height="10.5"/><rect x="768" y="136" width="10.5" height="10.5"/><rect x="768" y="148" width="10.5" height="10.5"/></g><g fill="url(#shine)"><rect x="764" y="96" width="10.5" height="10.5"/><rect x="764" y="132" width="10.5" height="10.5"/><rect x="764" y="144" width="10.5" height="10.5"/></g></g><g class="px" style="animation-delay:1.406s"><g fill="#2B4C7E"><rect x="780" y="100" width="10.5" height="10.5"/><rect x="780" y="136" width="10.5" height="10.5"/><rect x="780" y="160" width="10.5" height="10.5"/></g><g fill="url(#shine)"><rect x="776" y="96" width="10.5" height="10.5"/><rect x="776" y="132" width="10.5" height="10.5"/><rect x="776" y="156" width="10.5" height="10.5"/></g></g><g class="px" style="animation-delay:1.428s"><g fill="#2B4C7E"><rect x="792" y="112" width="10.5" height="10.5"/><rect x="792" y="124" width="10.5" height="10.5"/><rect x="792" y="172" width="10.5" height="10.5"/></g><g fill="url(#shine)"><rect x="788" y="108" width="10.5" height="10.5"/><rect x="788" y="120" width="10.5" height="10.5"/><rect x="788" y="168" width="10.5" height="10.5"/></g></g><g class="px" style="animation-delay:1.450s"><g fill="#2B4C7E"><rect x="828" y="100" width="10.5" height="10.5"/><rect x="828" y="172" width="10.5" height="10.5"/></g><g fill="url(#shine)"><rect x="824" y="96" width="10.5" height="10.5"/><rect x="824" y="168" width="10.5" height="10.5"/></g></g><g class="px" style="animation-delay:1.472s"><g fill="#2B4C7E"><rect x="840" y="100" width="10.5" height="10.5"/><rect x="840" y="112" width="10.5" height="10.5"/><rect x="840" y="124" width="10.5" height="10.5"/><rect x="840" y="136" width="10.5" height="10.5"/><rect x="840" y="148" width="10.5" height="10.5"/><rect x="840" y="160" width="10.5" height="10.5"/><rect x="840" y="172" width="10.5" height="10.5"/></g><g fill="url(#shine)"><rect x="836" y="96" width="10.5" height="10.5"/><rect x="836" y="108" width="10.5" height="10.5"/><rect x="836" y="120" width="10.5" height="10.5"/><rect x="836" y="132" width="10.5" height="10.5"/><rect x="836" y="144" width="10.5" height="10.5"/><rect x="836" y="156" width="10.5" height="10.5"/><rect x="836" y="168" width="10.5" height="10.5"/></g></g><g class="px" style="animation-delay:1.494s"><g fill="#2B4C7E"><rect x="852" y="100" width="10.5" height="10.5"/><rect x="852" y="172" width="10.5" height="10.5"/></g><g fill="url(#shine)"><rect x="848" y="96" width="10.5" height="10.5"/><rect x="848" y="168" width="10.5" height="10.5"/></g></g>

<text x="56" y="228" class="sans fade" style="animation-delay:1.1s" font-size="22" fill="#8A9BB8">Syed Farhan Jafri <tspan fill="#24365A">/</tspan> <tspan fill="#EAF0FA">Software Engineer</tspan></text>

<clipPath id="typeclip"><rect x="40" y="240" width="920" height="50"/></clipPath>
<g class="fade" style="animation-delay:1.4s" clip-path="url(#typeclip)">
  <text x="56" y="272" class="mono" font-size="20" fill="#F2B544">&gt;</text>
  <g class="ln" style="animation:v0 13.5s linear -0s infinite"><text x="82" y="272" class="mono" font-size="20" fill="#EAF0FA">building full-stack apps with MERN and Spring Boot</text><g class="cv" style="animation:t0 13.5s steps(50,end) -0s infinite"><rect x="82" y="253" width="11" height="24" fill="#F2B544" class="blink"/><rect x="93" y="252" width="760" height="28" fill="#0E1726"/></g></g><g class="ln" style="animation:v1 13.5s linear -9s infinite"><text x="82" y="272" class="mono" font-size="20" fill="#EAF0FA">training models with PyTorch and TensorFlow</text><g class="cv" style="animation:t1 13.5s steps(43,end) -9s infinite"><rect x="82" y="253" width="11" height="24" fill="#F2B544" class="blink"/><rect x="93" y="252" width="760" height="28" fill="#0E1726"/></g></g><g class="ln" style="animation:v2 13.5s linear -4.5s infinite"><text x="82" y="272" class="mono" font-size="20" fill="#EAF0FA">gaming and making videos on YouTube</text><g class="cv" style="animation:t2 13.5s steps(35,end) -4.5s infinite"><rect x="82" y="253" width="11" height="24" fill="#F2B544" class="blink"/><rect x="93" y="252" width="760" height="28" fill="#0E1726"/></g></g>
</g>

<text x="956" y="310" text-anchor="end" class="mono blink" font-size="14" fill="#F2B544">&#9660; press start</text>
</svg>