<svg xmlns="http://www.w3.org/2000/svg" viewBox="0 0 1000 52" width="1000" height="52" role="img" aria-label="Projects">
<title>Projects</title>
<path d="M9,1 H235 L243,9 V43 L235,51 H9 L1,43 V9 Z" fill="#0E1726" stroke="#24365A" stroke-width="2"/>
<rect x="18" y="20" width="8" height="12" fill="#F2B544"/>
<g fill="#2B4C7E"><rect x="38" y="14" width="3.4" height="3.4"/><rect x="42" y="14" width="3.4" height="3.4"/><rect x="46" y="14" width="3.4" height="3.4"/><rect x="50" y="14" width="3.4" height="3.4"/><rect x="38" y="18" width="3.4" height="3.4"/><rect x="54" y="18" width="3.4" height="3.4"/><rect x="38" y="22" width="3.4" height="3.4"/><rect x="54" y="22" width="3.4" height="3.4"/><rect x="38" y="26" width="3.4" height="3.4"/><rect x="42" y="26" width="3.4" height="3.4"/><rect x="46" y="26" width="3.4" height="3.4"/><rect x="50" y="26" width="3.4" height="3.4"/><rect x="38" y="30" width="3.4" height="3.4"/><rect x="38" y="34" width="3.4" height="3.4"/><rect x="38" y="38" width="3.4" height="3.4"/><rect x="62" y="14" width="3.4" height="3.4"/><rect x="66" y="14" width="3.4" height="3.4"/><rect x="70" y="14" width="3.4" height="3.4"/><rect x="74" y="14" width="3.4" height="3.4"/><rect x="62" y="18" width="3.4" height="3.4"/><rect x="78" y="18" width="3.4" height="3.4"/><rect x="62" y="22" width="3.4" height="3.4"/><rect x="78" y="22" width="3.4" height="3.4"/><rect x="62" y="26" width="3.4" height="3.4"/><rect x="66" y="26" width="3.4" height="3.4"/><rect x="70" y="26" width="3.4" height="3.4"/><rect x="74" y="26" width="3.4" height="3.4"/><rect x="62" y="30" width="3.4" height="3.4"/><rect x="70" y="30" width="3.4" height="3.4"/><rect x="62" y="34" width="3.4" height="3.4"/><rect x="74" y="34" width="3.4" height="3.4"/><rect x="62" y="38" width="3.4" height="3.4"/><rect x="78" y="38" width="3.4" height="3.4"/><rect x="90" y="14" width="3.4" height="3.4"/><rect x="94" y="14" width="3.4" height="3.4"/><rect x="98" y="14" width="3.4" height="3.4"/><rect x="86" y="18" width="3.4" height="3.4"/><rect x="102" y="18" width="3.4" height="3.4"/><rect x="86" y="22" width="3.4" height="3.4"/><rect x="102" y="22" width="3.4" height="3.4"/><rect x="86" y="26" width="3.4" height="3.4"/><rect x="102" y="26" width="3.4" height="3.4"/><rect x="86" y="30" width="3.4" height="3.4"/><rect x="102" y="30" width="3.4" height="3.4"/><rect x="86" y="34" width="3.4" height="3.4"/><rect x="102" y="34" width="3.4" height="3.4"/><rect x="90" y="38" width="3.4" height="3.4"/><rect x="94" y="38" width="3.4" height="3.4"/><rect x="98" y="38" width="3.4" height="3.4"/><rect x="118" y="14" width="3.4" height="3.4"/><rect x="122" y="14" width="3.4" height="3.4"/><rect x="126" y="14" width="3.4" height="3.4"/><rect x="126" y="18" width="3.4" height="3.4"/><rect x="126" y="22" width="3.4" height="3.4"/><rect x="126" y="26" width="3.4" height="3.4"/><rect x="126" y="30" width="3.4" height="3.4"/><rect x="110" y="34" width="3.4" height="3.4"/><rect x="126" y="34" width="3.4" height="3.4"/><rect x="114" y="38" width="3.4" height="3.4"/><rect x="118" y="38" width="3.4" height="3.4"/><rect x="122" y="38" width="3.4" height="3.4"/><rect x="134" y="14" width="3.4" height="3.4"/><rect x="138" y="14" width="3.4" height="3.4"/><rect x="142" y="14" width="3.4" height="3.4"/><rect x="146" y="14" width="3.4" height="3.4"/><rect x="150" y="14" width="3.4" height="3.4"/><rect x="134" y="18" width="3.4" height="3.4"/><rect x="134" y="22" width="3.4" height="3.4"/><rect x="134" y="26" width="3.4" height="3.4"/><rect x="138" y="26" width="3.4" height="3.4"/><rect x="142" y="26" width="3.4" height="3.4"/><rect x="146" y="26" width="3.4" height="3.4"/><rect x="134" y="30" width="3.4" height="3.4"/><rect x="134" y="34" width="3.4" height="3.4"/><rect x="134" y="38" width="3.4" height="3.4"/><rect x="138" y="38" width="3.4" height="3.4"/><rect x="142" y="38" width="3.4" height="3.4"/><rect x="146" y="38" width="3.4" height="3.4"/><rect x="150" y="38" width="3.4" height="3.4"/><rect x="162" y="14" width="3.4" height="3.4"/><rect x="166" y="14" width="3.4" height="3.4"/><rect x="170" y="14" width="3.4" height="3.4"/><rect x="158" y="18" width="3.4" height="3.4"/><rect x="174" y="18" width="3.4" height="3.4"/><rect x="158" y="22" width="3.4" height="3.4"/><rect x="158" y="26" width="3.4" height="3.4"/><rect x="158" y="30" width="3.4" height="3.4"/><rect x="158" y="34" width="3.4" height="3.4"/><rect x="174" y="34" width="3.4" height="3.4"/><rect x="162" y="38" width="3.4" height="3.4"/><rect x="166" y="38" width="3.4" height="3.4"/><rect x="170" y="38" width="3.4" height="3.4"/><rect x="182" y="14" width="3.4" height="3.4"/><rect x="186" y="14" width="3.4" height="3.4"/><rect x="190" y="14" width="3.4" height="3.4"/><rect x="194" y="14" width="3.4" height="3.4"/><rect x="198" y="14" width="3.4" height="3.4"/><rect x="190" y="18" width="3.4" height="3.4"/><rect x="190" y="22" width="3.4" height="3.4"/><rect x="190" y="26" width="3.4" height="3.4"/><rect x="190" y="30" width="3.4" height="3.4"/><rect x="190" y="34" width="3.4" height="3.4"/><rect x="190" y="38" width="3.4" height="3.4"/><rect x="210" y="14" width="3.4" height="3.4"/><rect x="214" y="14" width="3.4" height="3.4"/><rect x="218" y="14" width="3.4" height="3.4"/><rect x="222" y="14" width="3.4" height="3.4"/><rect x="206" y="18" width="3.4" height="3.4"/><rect x="206" y="22" width="3.4" height="3.4"/><rect x="210" y="26" width="3.4" height="3.4"/><rect x="214" y="26" width="3.4" height="3.4"/><rect x="218" y="26" width="3.4" height="3.4"/><rect x="222" y="30" width="3.4" height="3.4"/><rect x="222" y="34" width="3.4" height="3.4"/><rect x="206" y="38" width="3.4" height="3.4"/><rect x="210" y="38" width="3.4" height="3.4"/><rect x="214" y="38" width="3.4" height="3.4"/><rect x="218" y="38" width="3.4" height="3.4"/></g><g fill="#EAF0FA"><rect x="36" y="12" width="3.4" height="3.4"/><rect x="40" y="12" width="3.4" height="3.4"/><rect x="44" y="12" width="3.4" height="3.4"/><rect x="48" y="12" width="3.4" height="3.4"/><rect x="36" y="16" width="3.4" height="3.4"/><rect x="52" y="16" width="3.4" height="3.4"/><rect x="36" y="20" width="3.4" height="3.4"/><rect x="52" y="20" width="3.4" height="3.4"/><rect x="36" y="24" width="3.4" height="3.4"/><rect x="40" y="24" width="3.4" height="3.4"/><rect x="44" y="24" width="3.4" height="3.4"/><rect x="48" y="24" width="3.4" height="3.4"/><rect x="36" y="28" width="3.4" height="3.4"/><rect x="36" y="32" width="3.4" height="3.4"/><rect x="36" y="36" width="3.4" height="3.4"/><rect x="60" y="12" width="3.4" height="3.4"/><rect x="64" y="12" width="3.4" height="3.4"/><rect x="68" y="12" width="3.4" height="3.4"/><rect x="72" y="12" width="3.4" height="3.4"/><rect x="60" y="16" width="3.4" height="3.4"/><rect x="76" y="16" width="3.4" height="3.4"/><rect x="60" y="20" width="3.4" height="3.4"/><rect x="76" y="20" width="3.4" height="3.4"/><rect x="60" y="24" width="3.4" height="3.4"/><rect x="64" y="24" width="3.4" height="3.4"/><rect x="68" y="24" width="3.4" height="3.4"/><rect x="72" y="24" width="3.4" height="3.4"/><rect x="60" y="28" width="3.4" height="3.4"/><rect x="68" y="28" width="3.4" height="3.4"/><rect x="60" y="32" width="3.4" height="3.4"/><rect x="72" y="32" width="3.4" height="3.4"/><rect x="60" y="36" width="3.4" height="3.4"/><rect x="76" y="36" width="3.4" height="3.4"/><rect x="88" y="12" width="3.4" height="3.4"/><rect x="92" y="12" width="3.4" height="3.4"/><rect x="96" y="12" width="3.4" height="3.4"/><rect x="84" y="16" width="3.4" height="3.4"/><rect x="100" y="16" width="3.4" height="3.4"/><rect x="84" y="20" width="3.4" height="3.4"/><rect x="100" y="20" width="3.4" height="3.4"/><rect x="84" y="24" width="3.4" height="3.4"/><rect x="100" y="24" width="3.4" height="3.4"/><rect x="84" y="28" width="3.4" height="3.4"/><rect x="100" y="28" width="3.4" height="3.4"/><rect x="84" y="32" width="3.4" height="3.4"/><rect x="100" y="32" width="3.4" height="3.4"/><rect x="88" y="36" width="3.4" height="3.4"/><rect x="92" y="36" width="3.4" height="3.4"/><rect x="96" y="36" width="3.4" height="3.4"/><rect x="116" y="12" width="3.4" height="3.4"/><rect x="120" y="12" width="3.4" height="3.4"/><rect x="124" y="12" width="3.4" height="3.4"/><rect x="124" y="16" width="3.4" height="3.4"/><rect x="124" y="20" width="3.4" height="3.4"/><rect x="124" y="24" width="3.4" height="3.4"/><rect x="124" y="28" width="3.4" height="3.4"/><rect x="108" y="32" width="3.4" height="3.4"/><rect x="124" y="32" width="3.4" height="3.4"/><rect x="112" y="36" width="3.4" height="3.4"/><rect x="116" y="36" width="3.4" height="3.4"/><rect x="120" y="36" width="3.4" height="3.4"/><rect x="132" y="12" width="3.4" height="3.4"/><rect x="136" y="12" width="3.4" height="3.4"/><rect x="140" y="12" width="3.4" height="3.4"/><rect x="144" y="12" width="3.4" height="3.4"/><rect x="148" y="12" width="3.4" height="3.4"/><rect x="132" y="16" width="3.4" height="3.4"/><rect x="132" y="20" width="3.4" height="3.4"/><rect x="132" y="24" width="3.4" height="3.4"/><rect x="136" y="24" width="3.4" height="3.4"/><rect x="140" y="24" width="3.4" height="3.4"/><rect x="144" y="24" width="3.4" height="3.4"/><rect x="132" y="28" width="3.4" height="3.4"/><rect x="132" y="32" width="3.4" height="3.4"/><rect x="132" y="36" width="3.4" height="3.4"/><rect x="136" y="36" width="3.4" height="3.4"/><rect x="140" y="36" width="3.4" height="3.4"/><rect x="144" y="36" width="3.4" height="3.4"/><rect x="148" y="36" width="3.4" height="3.4"/><rect x="160" y="12" width="3.4" height="3.4"/><rect x="164" y="12" width="3.4" height="3.4"/><rect x="168" y="12" width="3.4" height="3.4"/><rect x="156" y="16" width="3.4" height="3.4"/><rect x="172" y="16" width="3.4" height="3.4"/><rect x="156" y="20" width="3.4" height="3.4"/><rect x="156" y="24" width="3.4" height="3.4"/><rect x="156" y="28" width="3.4" height="3.4"/><rect x="156" y="32" width="3.4" height="3.4"/><rect x="172" y="32" width="3.4" height="3.4"/><rect x="160" y="36" width="3.4" height="3.4"/><rect x="164" y="36" width="3.4" height="3.4"/><rect x="168" y="36" width="3.4" height="3.4"/><rect x="180" y="12" width="3.4" height="3.4"/><rect x="184" y="12" width="3.4" height="3.4"/><rect x="188" y="12" width="3.4" height="3.4"/><rect x="192" y="12" width="3.4" height="3.4"/><rect x="196" y="12" width="3.4" height="3.4"/><rect x="188" y="16" width="3.4" height="3.4"/><rect x="188" y="20" width="3.4" height="3.4"/><rect x="188" y="24" width="3.4" height="3.4"/><rect x="188" y="28" width="3.4" height="3.4"/><rect x="188" y="32" width="3.4" height="3.4"/><rect x="188" y="36" width="3.4" height="3.4"/><rect x="208" y="12" width="3.4" height="3.4"/><rect x="212" y="12" width="3.4" height="3.4"/><rect x="216" y="12" width="3.4" height="3.4"/><rect x="220" y="12" width="3.4" height="3.4"/><rect x="204" y="16" width="3.4" height="3.4"/><rect x="204" y="20" width="3.4" height="3.4"/><rect x="208" y="24" width="3.4" height="3.4"/><rect x="212" y="24" width="3.4" height="3.4"/><rect x="216" y="24" width="3.4" height="3.4"/><rect x="220" y="28" width="3.4" height="3.4"/><rect x="220" y="32" width="3.4" height="3.4"/><rect x="204" y="36" width="3.4" height="3.4"/><rect x="208" y="36" width="3.4" height="3.4"/><rect x="212" y="36" width="3.4" height="3.4"/><rect x="216" y="36" width="3.4" height="3.4"/></g>
<rect x="243" y="25.0" width="756" height="2" fill="#24365A"/>
<rect x="996" y="23.0" width="4" height="6" fill="#24365A"/>
</svg>