<svg xmlns="http://www.w3.org/2000/svg" viewBox="0 0 480 158" width="480" height="158" role="img" aria-label="Sheesh. An e-commerce store for mosaic mirroworks based in Lahore. Built with Next.js, TypeScript, MongoDB.">
<title>Sheesh</title>
<style>.mono{font-family:ui-monospace, SFMono-Regular, Menlo, Consolas, 'Liberation Mono', monospace}.blink{animation:blink 1s steps(1,end) infinite}@keyframes blink{50%{opacity:0}}@media (prefers-reduced-motion: reduce){*{animation:none!important}}</style>
<path d="M13,1 H467 L479,13 V145 L467,157 H13 L1,145 V13 Z" fill="#0E1726" stroke="#24365A" stroke-width="2"/>
<rect x="22" y="20" width="12" height="4" fill="#F2B544"/>
<rect x="420" y="32" width="38" height="18" fill="#F2B544"/><text x="439" y="45.5" text-anchor="middle" class="mono" font-size="11" font-weight="700" fill="#0E1726">WEB</text>
<g fill="#2B4C7E"><rect x="28" y="36" width="3.5" height="3.5"/><rect x="32" y="36" width="3.5" height="3.5"/><rect x="36" y="36" width="3.5" height="3.5"/><rect x="40" y="36" width="3.5" height="3.5"/><rect x="24" y="40" width="3.5" height="3.5"/><rect x="24" y="44" width="3.5" height="3.5"/><rect x="28" y="48" width="3.5" height="3.5"/><rect x="32" y="48" width="3.5" height="3.5"/><rect x="36" y="48" width="3.5" height="3.5"/><rect x="40" y="52" width="3.5" height="3.5"/><rect x="40" y="56" width="3.5" height="3.5"/><rect x="24" y="60" width="3.5" height="3.5"/><rect x="28" y="60" width="3.5" height="3.5"/><rect x="32" y="60" width="3.5" height="3.5"/><rect x="36" y="60" width="3.5" height="3.5"/><rect x="48" y="36" width="3.5" height="3.5"/><rect x="64" y="36" width="3.5" height="3.5"/><rect x="48" y="40" width="3.5" height="3.5"/><rect x="64" y="40" width="3.5" height="3.5"/><rect x="48" y="44" width="3.5" height="3.5"/><rect x="64" y="44" width="3.5" height="3.5"/><rect x="48" y="48" width="3.5" height="3.5"/><rect x="52" y="48" width="3.5" height="3.5"/><rect x="56" y="48" width="3.5" height="3.5"/><rect x="60" y="48" width="3.5" height="3.5"/><rect x="64" y="48" width="3.5" height="3.5"/><rect x="48" y="52" width="3.5" height="3.5"/><rect x="64" y="52" width="3.5" height="3.5"/><rect x="48" y="56" width="3.5" height="3.5"/><rect x="64" y="56" width="3.5" height="3.5"/><rect x="48" y="60" width="3.5" height="3.5"/><rect x="64" y="60" width="3.5" height="3.5"/><rect x="72" y="36" width="3.5" height="3.5"/><rect x="76" y="36" width="3.5" height="3.5"/><rect x="80" y="36" width="3.5" height="3.5"/><rect x="84" y="36" width="3.5" height="3.5"/><rect x="88" y="36" width="3.5" height="3.5"/><rect x="72" y="40" width="3.5" height="3.5"/><rect x="72" y="44" width="3.5" height="3.5"/><rect x="72" y="48" width="3.5" height="3.5"/><rect x="76" y="48" width="3.5" height="3.5"/><rect x="80" y="48" width="3.5" height="3.5"/><rect x="84" y="48" width="3.5" height="3.5"/><rect x="72" y="52" width="3.5" height="3.5"/><rect x="72" y="56" width="3.5" height="3.5"/><rect x="72" y="60" width="3.5" height="3.5"/><rect x="76" y="60" width="3.5" height="3.5"/><rect x="80" y="60" width="3.5" height="3.5"/><rect x="84" y="60" width="3.5" height="3.5"/><rect x="88" y="60" width="3.5" height="3.5"/><rect x="96" y="36" width="3.5" height="3.5"/><rect x="100" y="36" width="3.5" height="3.5"/><rect x="104" y="36" width="3.5" height="3.5"/><rect x="108" y="36" width="3.5" height="3.5"/><rect x="112" y="36" width="3.5" height="3.5"/><rect x="96" y="40" width="3.5" height="3.5"/><rect x="96" y="44" width="3.5" height="3.5"/><rect x="96" y="48" width="3.5" height="3.5"/><rect x="100" y="48" width="3.5" height="3.5"/><rect x="104" y="48" width="3.5" height="3.5"/><rect x="108" y="48" width="3.5" height="3.5"/><rect x="96" y="52" width="3.5" height="3.5"/><rect x="96" y="56" width="3.5" height="3.5"/><rect x="96" y="60" width="3.5" height="3.5"/><rect x="100" y="60" width="3.5" height="3.5"/><rect x="104" y="60" width="3.5" height="3.5"/><rect x="108" y="60" width="3.5" height="3.5"/><rect x="112" y="60" width="3.5" height="3.5"/><rect x="124" y="36" width="3.5" height="3.5"/><rect x="128" y="36" width="3.5" height="3.5"/><rect x="132" y="36" width="3.5" height="3.5"/><rect x="136" y="36" width="3.5" height="3.5"/><rect x="120" y="40" width="3.5" height="3.5"/><rect x="120" y="44" width="3.5" height="3.5"/><rect x="124" y="48" width="3.5" height="3.5"/><rect x="128" y="48" width="3.5" height="3.5"/><rect x="132" y="48" width="3.5" height="3.5"/><rect x="136" y="52" width="3.5" height="3.5"/><rect x="136" y="56" width="3.5" height="3.5"/><rect x="120" y="60" width="3.5" height="3.5"/><rect x="124" y="60" width="3.5" height="3.5"/><rect x="128" y="60" width="3.5" height="3.5"/><rect x="132" y="60" width="3.5" height="3.5"/><rect x="144" y="36" width="3.5" height="3.5"/><rect x="160" y="36" width="3.5" height="3.5"/><rect x="144" y="40" width="3.5" height="3.5"/><rect x="160" y="40" width="3.5" height="3.5"/><rect x="144" y="44" width="3.5" height="3.5"/><rect x="160" y="44" width="3.5" height="3.5"/><rect x="144" y="48" width="3.5" height="3.5"/><rect x="148" y="48" width="3.5" height="3.5"/><rect x="152" y="48" width="3.5" height="3.5"/><rect x="156" y="48" width="3.5" height="3.5"/><rect x="160" y="48" width="3.5" height="3.5"/><rect x="144" y="52" width="3.5" height="3.5"/><rect x="160" y="52" width="3.5" height="3.5"/><rect x="144" y="56" width="3.5" height="3.5"/><rect x="160" y="56" width="3.5" height="3.5"/><rect x="144" y="60" width="3.5" height="3.5"/><rect x="160" y="60" width="3.5" height="3.5"/></g><g fill="#EAF0FA"><rect x="26" y="34" width="3.5" height="3.5"/><rect x="30" y="34" width="3.5" height="3.5"/><rect x="34" y="34" width="3.5" height="3.5"/><rect x="38" y="34" width="3.5" height="3.5"/><rect x="22" y="38" width="3.5" height="3.5"/><rect x="22" y="42" width="3.5" height="3.5"/><rect x="26" y="46" width="3.5" height="3.5"/><rect x="30" y="46" width="3.5" height="3.5"/><rect x="34" y="46" width="3.5" height="3.5"/><rect x="38" y="50" width="3.5" height="3.5"/><rect x="38" y="54" width="3.5" height="3.5"/><rect x="22" y="58" width="3.5" height="3.5"/><rect x="26" y="58" width="3.5" height="3.5"/><rect x="30" y="58" width="3.5" height="3.5"/><rect x="34" y="58" width="3.5" height="3.5"/><rect x="46" y="34" width="3.5" height="3.5"/><rect x="62" y="34" width="3.5" height="3.5"/><rect x="46" y="38" width="3.5" height="3.5"/><rect x="62" y="38" width="3.5" height="3.5"/><rect x="46" y="42" width="3.5" height="3.5"/><rect x="62" y="42" width="3.5" height="3.5"/><rect x="46" y="46" width="3.5" height="3.5"/><rect x="50" y="46" width="3.5" height="3.5"/><rect x="54" y="46" width="3.5" height="3.5"/><rect x="58" y="46" width="3.5" height="3.5"/><rect x="62" y="46" width="3.5" height="3.5"/><rect x="46" y="50" width="3.5" height="3.5"/><rect x="62" y="50" width="3.5" height="3.5"/><rect x="46" y="54" width="3.5" height="3.5"/><rect x="62" y="54" width="3.5" height="3.5"/><rect x="46" y="58" width="3.5" height="3.5"/><rect x="62" y="58" width="3.5" height="3.5"/><rect x="70" y="34" width="3.5" height="3.5"/><rect x="74" y="34" width="3.5" height="3.5"/><rect x="78" y="34" width="3.5" height="3.5"/><rect x="82" y="34" width="3.5" height="3.5"/><rect x="86" y="34" width="3.5" height="3.5"/><rect x="70" y="38" width="3.5" height="3.5"/><rect x="70" y="42" width="3.5" height="3.5"/><rect x="70" y="46" width="3.5" height="3.5"/><rect x="74" y="46" width="3.5" height="3.5"/><rect x="78" y="46" width="3.5" height="3.5"/><rect x="82" y="46" width="3.5" height="3.5"/><rect x="70" y="50" width="3.5" height="3.5"/><rect x="70" y="54" width="3.5" height="3.5"/><rect x="70" y="58" width="3.5" height="3.5"/><rect x="74" y="58" width="3.5" height="3.5"/><rect x="78" y="58" width="3.5" height="3.5"/><rect x="82" y="58" width="3.5" height="3.5"/><rect x="86" y="58" width="3.5" height="3.5"/><rect x="94" y="34" width="3.5" height="3.5"/><rect x="98" y="34" width="3.5" height="3.5"/><rect x="102" y="34" width="3.5" height="3.5"/><rect x="106" y="34" width="3.5" height="3.5"/><rect x="110" y="34" width="3.5" height="3.5"/><rect x="94" y="38" width="3.5" height="3.5"/><rect x="94" y="42" width="3.5" height="3.5"/><rect x="94" y="46" width="3.5" height="3.5"/><rect x="98" y="46" width="3.5" height="3.5"/><rect x="102" y="46" width="3.5" height="3.5"/><rect x="106" y="46" width="3.5" height="3.5"/><rect x="94" y="50" width="3.5" height="3.5"/><rect x="94" y="54" width="3.5" height="3.5"/><rect x="94" y="58" width="3.5" height="3.5"/><rect x="98" y="58" width="3.5" height="3.5"/><rect x="102" y="58" width="3.5" height="3.5"/><rect x="106" y="58" width="3.5" height="3.5"/><rect x="110" y="58" width="3.5" height="3.5"/><rect x="122" y="34" width="3.5" height="3.5"/><rect x="126" y="34" width="3.5" height="3.5"/><rect x="130" y="34" width="3.5" height="3.5"/><rect x="134" y="34" width="3.5" height="3.5"/><rect x="118" y="38" width="3.5" height="3.5"/><rect x="118" y="42" width="3.5" height="3.5"/><rect x="122" y="46" width="3.5" height="3.5"/><rect x="126" y="46" width="3.5" height="3.5"/><rect x="130" y="46" width="3.5" height="3.5"/><rect x="134" y="50" width="3.5" height="3.5"/><rect x="134" y="54" width="3.5" height="3.5"/><rect x="118" y="58" width="3.5" height="3.5"/><rect x="122" y="58" width="3.5" height="3.5"/><rect x="126" y="58" width="3.5" height="3.5"/><rect x="130" y="58" width="3.5" height="3.5"/><rect x="142" y="34" width="3.5" height="3.5"/><rect x="158" y="34" width="3.5" height="3.5"/><rect x="142" y="38" width="3.5" height="3.5"/><rect x="158" y="38" width="3.5" height="3.5"/><rect x="142" y="42" width="3.5" height="3.5"/><rect x="158" y="42" width="3.5" height="3.5"/><rect x="142" y="46" width="3.5" height="3.5"/><rect x="146" y="46" width="3.5" height="3.5"/><rect x="150" y="46" width="3.5" height="3.5"/><rect x="154" y="46" width="3.5" height="3.5"/><rect x="158" y="46" width="3.5" height="3.5"/><rect x="142" y="50" width="3.5" height="3.5"/><rect x="158" y="50" width="3.5" height="3.5"/><rect x="142" y="54" width="3.5" height="3.5"/><rect x="158" y="54" width="3.5" height="3.5"/><rect x="142" y="58" width="3.5" height="3.5"/><rect x="158" y="58" width="3.5" height="3.5"/></g>
<text x="22" y="94" class="mono" font-size="13" fill="#8A9BB8">An e-commerce store for mosaic mirroworks based in Lahore.</text>
<path d="M27,114 H87 L92,119 V131 L87,136 H27 L22,131 V119 Z" fill="none" stroke="#24365A" stroke-width="1.5"/><text x="57" y="129" text-anchor="middle" class="mono" font-size="12" fill="#5CC8FF">Next.js</text><path d="M105,114 H187 L192,119 V131 L187,136 H105 L100,131 V119 Z" fill="none" stroke="#24365A" stroke-width="1.5"/><text x="146" y="129" text-anchor="middle" class="mono" font-size="12" fill="#5CC8FF">TypeScript</text><path d="M205,114 H265 L270,119 V131 L265,136 H205 L200,131 V119 Z" fill="none" stroke="#24365A" stroke-width="1.5"/><text x="235" y="129" text-anchor="middle" class="mono" font-size="12" fill="#5CC8FF">MongoDB</text>
<text x="458" y="146" text-anchor="end" class="mono blink" font-size="10" fill="#F2B544">&#9654;</text>
</svg>